<?xml version="1.0" encoding="UTF-8" standalone="no"?>
<!-- Created with Inkscape (http://www.inkscape.org/) -->

<svg
   width="1280"
   height="640"
   viewBox="0 0 338.66666 169.33333"
   version="1.1"
   id="svg5"
   inkscape:version="1.1 (c4e8f9ed74, 2021-05-24)"
   sodipodi:docname="afina.svg"
   xmlns:inkscape="http://www.inkscape.org/namespaces/inkscape"
   xmlns:sodipodi="http://sodipodi.sourceforge.net/DTD/sodipodi-0.dtd"
   xmlns:xlink="http://www.w3.org/1999/xlink"
   xmlns="http://www.w3.org/2000/svg"
   xmlns:svg="http://www.w3.org/2000/svg">
  <sodipodi:namedview
     id="namedview7"
     pagecolor="#ffffff"
     bordercolor="#666666"
     borderopacity="1.0"
     inkscape:pageshadow="2"
     inkscape:pageopacity="0.0"
     inkscape:pagecheckerboard="0"
     inkscape:document-units="mm"
     showgrid="false"
     width="1280mm"
     inkscape:zoom="0.39552492"
     inkscape:cx="673.78814"
     inkscape:cy="374.18628"
     inkscape:window-width="1366"
     inkscape:window-height="717"
     inkscape:window-x="0"
     inkscape:window-y="0"
     inkscape:window-maximized="1"
     inkscape:current-layer="layer1"
     showguides="true"
     inkscape:guide-bbox="true"
     units="px">
    <sodipodi:guide
       position="24.323807,95.326853"
       orientation="0,-1"
       id="guide3045" />
  </sodipodi:namedview>
  <defs
     id="defs2">
    <rect
       x="474.27975"
       y="1411.785"
       width="3778.3979"
       height="817.06366"
       id="rect33139" />
    <rect
       x="952.7077"
       y="1411.785"
       width="3042.1838"
       height="738.13062"
       id="rect30025" />
    <rect
       x="2261.8484"
       y="164.65985"
       width="2935.8049"
       height="759.93731"
       id="rect17657" />
    <rect
       x="1261.703"
       y="123.14433"
       width="2990.9746"
       height="820.93274"
       id="rect10715" />
    <linearGradient
       inkscape:collect="always"
       id="linearGradient23093">
      <stop
         style="stop-color:#001731;stop-opacity:1"
         offset="0"
         id="stop23089" />
      <stop
         style="stop-color:#025c90;stop-opacity:1"
         offset="0.5079037"
         id="stop23323" />
      <stop
         style="stop-color:#05b8f1;stop-opacity:1"
         offset="1"
         id="stop23091" />
    </linearGradient>
    <linearGradient
       id="linearGradient21920"
       inkscape:swatch="solid">
      <stop
         style="stop-color:#001731;stop-opacity:1;"
         offset="0"
         id="stop21918" />
    </linearGradient>
    <linearGradient
       id="linearGradient18794"
       inkscape:swatch="solid">
      <stop
         style="stop-color:#002f5d;stop-opacity:1;"
         offset="0"
         id="stop18792" />
    </linearGradient>
    <linearGradient
       id="linearGradient11846"
       inkscape:swatch="solid">
      <stop
         style="stop-color:#025c90;stop-opacity:1;"
         offset="0"
         id="stop11844" />
    </linearGradient>
    <linearGradient
       id="linearGradient9071"
       inkscape:swatch="solid">
      <stop
         style="stop-color:#017dc5;stop-opacity:1;"
         offset="0"
         id="stop9069" />
    </linearGradient>
    <linearGradient
       id="linearGradient4229"
       inkscape:swatch="solid">
      <stop
         style="stop-color:#05b8f1;stop-opacity:1;"
         offset="0"
         id="stop4227" />
    </linearGradient>
    <linearGradient
       inkscape:collect="always"
       xlink:href="#linearGradient23093"
       id="linearGradient23095"
       x1="193.66087"
       y1="91.376732"
       x2="12.362467"
       y2="92.276375"
       gradientUnits="userSpaceOnUse"
       gradientTransform="matrix(0.30482913,0,0,0.30482913,15.8207,16.60303)" />
    <rect
       x="2261.8484"
       y="164.65985"
       width="2935.8049"
       height="759.93731"
       id="rect864" />
    <rect
       x="474.27975"
       y="1411.785"
       width="3778.3979"
       height="817.06366"
       id="rect917" />
  </defs>
  <g
     inkscape:label="Слой 1"
     inkscape:groupmode="layer"
     id="layer1">
    <g
       id="g45563"
       inkscape:label="github-page">
      <g
         id="g45366">
        <path
           style="fill:url(#linearGradient23095);fill-opacity:1;stroke-width:0.107537"
           d="m 19.553273,74.006478 c 0,-0.02987 0.331901,-0.64686 0.737561,-1.371097 6.724043,-12.004684 14.449187,-26.410079 17.765862,-33.128742 0.753971,-1.527334 1.39831,-2.804422 1.431859,-2.837974 0.03355,-0.03355 0.413101,0.201656 0.843438,0.522684 0.931445,0.694846 2.199717,1.503079 3.309554,2.109085 0.716861,0.391429 3.384689,1.638966 3.504886,1.638966 0.0257,0 -0.474134,-0.394309 -1.110743,-0.876243 -1.564584,-1.184444 -2.9518,-2.406632 -4.459247,-3.92876 l -1.258576,-1.270833 0.760061,-1.666823 c 1.094974,-2.401279 2.741966,-6.295425 4.400331,-10.404122 0.793741,-1.966538 1.467365,-3.574036 1.496936,-3.572217 0.02957,0.0018 0.679175,1.489825 1.443555,3.30668 4.642337,11.034366 8.01719,17.941226 16.928952,34.646179 1.33976,2.511357 2.4547,4.612184 2.47763,4.668507 0.0229,0.05632 -0.26767,-0.07059 -0.64576,-0.282034 -1.07534,-0.601364 -2.59081,-1.237615 -4.2889,-1.800644 -2.33443,-0.774022 -2.51076,-0.774314 -1.12914,-0.0018 1.80646,1.009951 3.99064,2.515188 6.13838,4.230285 l 1.94441,1.552729 2.27942,4.221436 c 1.25368,2.321792 2.25974,4.241118 2.23568,4.265172 -0.0241,0.02405 -0.30365,-0.109976 -0.62133,-0.297842 -1.26341,-0.747146 -5.13106,-2.830982 -6.87335,-3.70326 -4.7095,-2.357849 -8.743911,-3.919912 -12.392159,-4.798097 -0.781853,-0.188202 -1.433599,-0.350468 -1.448325,-0.360589 -0.01472,-0.01012 0.04488,-0.522532 0.132451,-1.138689 0.499487,-3.514348 -0.23409,-7.298984 -1.896491,-9.784299 -0.744186,-1.112571 -1.487493,-1.803546 -2.455216,-2.282353 -0.651862,-0.322527 -0.771026,-0.344957 -1.82813,-0.344112 -1.073435,9.14e-4 -1.166103,0.01926 -1.826158,0.362771 -1.353183,0.704225 -2.579522,2.232952 -3.331429,4.152876 -0.711017,1.815529 -0.910494,2.997156 -0.907696,5.376847 0.0015,1.42122 0.05294,2.283305 0.168403,2.831927 0.117792,0.559669 0.131281,0.79839 0.04645,0.822008 -0.06575,0.01832 -0.797034,0.189171 -1.625069,0.379692 -4.694515,1.080153 -10.62987,3.633408 -17.843975,7.676073 -2.092076,1.172364 -2.104125,1.178589 -2.104125,1.086668 z"
           id="path39"
           inkscape:label="logo" />
        <text
           xml:space="preserve"
           transform="matrix(0.08065271,0,0,0.08065271,-97.501757,12.693987)"
           id="text17655"
           style="font-style:normal;font-weight:normal;font-size:666.667px;font-family:sans-serif;white-space:pre;shape-inside:url(#rect17657);display:none;fill:#000000;fill-opacity:1;stroke:none"
           inkscape:label="afina-text" />
        <g
           id="g1172"
           inkscape:label="afina">
          <g
             aria-label="A f i n a"
             transform="matrix(0.08065271,0,0,0.08065271,-97.501757,12.693987)"
             id="text862"
             style="font-size:666.667px;white-space:pre;shape-inside:url(#rect864)"
             inkscape:label="afina-contur">
            <path
               d="M 2617.9676,665.96248 H 2422.004 l -30.9245,88.54171 H 2265.1029 L 2445.116,268.50135 h 149.4141 l 180.0131,486.00284 H 2648.5666 Z M 2453.254,575.79317 h 133.1381 L 2519.9858,382.4337 Z"
               style="font-weight:bold;-inkscape-font-specification:'sans-serif Bold'"
               id="path866" />
            <path
               d="m 3305.7935,247.99353 v 76.49743 h -64.4532 q -24.7396,0 -34.5052,9.11459 -9.7656,8.78907 -9.7656,30.9245 v 25.39063 h 99.6094 v 83.33338 h -99.6094 V 754.50419 H 3080.533 V 473.25406 h -57.9428 v -83.33338 h 57.9428 v -25.39063 q 0,-59.57035 33.2031,-87.89067 33.2031,-28.64585 102.8646,-28.64585 z"
               style="font-weight:bold;-inkscape-font-specification:'sans-serif Bold'"
               id="path868" />
            <path
               d="m 3588.0201,389.92068 h 116.5365 v 364.58351 h -116.5365 z m 0,-141.92715 h 116.5365 v 95.05213 h -116.5365 z"
               style="font-weight:bold;-inkscape-font-specification:'sans-serif Bold'"
               id="path870" />
            <path
               d="M 4415.1689,532.49888 V 754.50419 H 4297.9814 V 718.37136 584.58224 q 0,-47.20055 -2.2787,-65.1042 -1.9531,-17.90366 -7.1614,-26.3672 -6.836,-11.39324 -18.5547,-17.57814 -11.7188,-6.51042 -26.6927,-6.51042 -36.4584,0 -57.2917,28.32033 -20.8334,27.99481 -20.8334,77.79952 V 754.50419 H 4048.6323 V 389.92068 h 116.5365 v 53.38545 q 26.3672,-31.90106 55.9896,-46.87503 29.6224,-15.29948 65.4298,-15.29948 63.151,0 95.7031,38.73699 32.8776,38.737 32.8776,112.63027 z"
               style="font-weight:bold;-inkscape-font-specification:'sans-serif Bold'"
               id="path872" />
            <path
               d="m 4918.75,590.44161 q -36.4583,0 -55.013,12.3698 -18.2292,12.3698 -18.2292,36.45835 0,22.13543 14.6484,34.83075 14.974,12.3698 41.3412,12.3698 32.8776,0 55.3386,-23.43751 22.4609,-23.76304 22.4609,-59.24483 v -13.34636 z m 178.06,-43.94533 v 208.00791 h -117.5131 v -54.03648 q -23.4375,33.20314 -52.7344,48.50263 -29.2969,14.97396 -71.2891,14.97396 -56.6406,0 -92.1224,-32.87762 -35.1563,-33.20314 -35.1563,-85.93754 0,-64.12763 43.9454,-94.07557 44.2708,-29.94793 138.6719,-29.94793 h 68.6849 v -9.11458 q 0,-27.66929 -21.8099,-40.36461 -21.8099,-13.02084 -68.0339,-13.02084 -37.4349,0 -69.6615,7.48699 -32.2265,7.48698 -59.8958,22.46094 v -88.86723 q 37.4349,-9.11459 75.1953,-13.67188 37.7605,-4.88281 75.5209,-4.88281 98.6329,0 142.2527,39.06252 43.9453,38.73699 43.9453,126.30214 z"
               style="font-weight:bold;-inkscape-font-specification:'sans-serif Bold'"
               id="path874" />
          </g>
        </g>
      </g>
      <text
         xml:space="preserve"
         transform="matrix(0.08065271,0,0,0.08065271,-16.347766,-21.278147)"
         id="text33137"
         style="font-style:normal;font-weight:normal;font-size:200px;font-family:sans-serif;white-space:pre;shape-inside:url(#rect33139);display:none;fill:#000000;fill-opacity:1;stroke:none"
         x="1528.2471"
         y="0"
         inkscape:label="welcome-text" />
      <g
         id="g1164"
         inkscape:label="welcome">
        <g
           aria-label="Welcome to Afina installer.
Please, read the README.MD files and follow his instructions."
           transform="matrix(0.08065271,0,0,0.08065271,-16.347766,-21.278147)"
           id="text915"
           style="font-size:200px;white-space:pre;shape-inside:url(#rect917)"
           inkscape:label="welcome-contur">
          <path
             d="m 1405.8827,1461.1383 v -4.8 h -35.6 v 4.8 c 10.8,0.8 13.6,2.6 13.6,8.8 0,2.2 -0.6,5.4 -1.4,8.2 l -22,67.2 -21.2,-65.8 c -1.8,-6 -2.6,-9.2 -2.6,-11.2 0,-4.6 3,-6.4 11.4,-6.8 0.4,-0.2 1.4,-0.2 2.6,-0.4 v -4.8 h -61.2 v 4.8 c 8.2,0.4 12,2.4 14.2,7 l 6.8,18.8 -23,60.2 -23.6,-71.2 c -1.2,-3.6 -1.4,-4.8 -1.4,-6.4 0,-5.8 2.4,-7.4 12.6,-8.4 v -4.8 h -57.6 v 4.8 c 8.2,1.4 10,3 13.6,12.6 l 41.4,118 h 5.6 l 36.4,-93.6 33.4,93.6 h 5.4 l 39.2,-118 c 2.6,-7.8 7,-11.8 13.4,-12.6 z"
             style="font-weight:bold;font-family:'Times Newer Roman';-inkscape-font-specification:'Times Newer Roman,  Bold';text-align:center;text-anchor:middle"
             id="path919" />
          <path
             d="m 1482.882,1566.9383 -4.8,-2.6 c -7.8,9.4 -13.8,13 -22.2,13 -7.6,0 -13.4,-3.4 -17.4,-10.4 -3.8,-6.2 -5.2,-12.8 -6,-26.2 h 49.4 c -1.2,-16.4 -4.2,-25.6 -10.4,-33.2 -6.4,-7.4 -15.4,-11.4 -26.4,-11.4 -24.2,0 -40.8,19.4 -40.8,48 0,28.6 16,47.4 40.4,47.4 15.8,0 25.4,-6.2 38.2,-24.6 z m -25.2,-33.4 h -26.2 c 0.6,-23.6 4,-31.4 13.8,-31.4 5.6,0 9.2,3 10.8,9.2 0.8,3.8 1.4,9 1.6,19.2 z"
             style="font-weight:bold;font-family:'Times Newer Roman';-inkscape-font-specification:'Times Newer Roman,  Bold';text-align:center;text-anchor:middle"
             id="path921" />
          <path
             d="m 1535.6813,1588.7383 v -4.8 c -6.2,0.2 -9.6,-3.8 -9.6,-11.6 v -116 h -37.2 v 4.6 c 6.6,0.4 9.8,4 10,11.4 v 100 c -0.2,7.4 -3.8,11.6 -10,11.6 v 4.8 z"
             style="font-weight:bold;font-family:'Times Newer Roman';-inkscape-font-specification:'Times Newer Roman,  Bold';text-align:center;text-anchor:middle"
             id="path923" />
          <path
             d="m 1625.8813,1570.9383 -3.6,-3.6 c -7.2,8.2 -12.4,11 -20.4,11 -17,0 -27.8,-17 -27.8,-43.8 0,-20 6.2,-32.4 16.4,-32.4 3.2,0 6,1.4 7.2,3.8 1,1.8 1.2,1.8 1.2,10 0,9.6 3.4,14 11,14 8.2,0 13.2,-4.6 13.2,-12.4 0,-12 -13.2,-21.4 -30.2,-21.4 -26.8,0 -46.4,20.6 -46.4,49 0,27.2 17.4,46.4 42,46.4 15,0 26,-6 37.4,-20.6 z"
             style="font-weight:bold;font-family:'Times Newer Roman';-inkscape-font-specification:'Times Newer Roman,  Bold';text-align:center;text-anchor:middle"
             id="path925" />
          <path
             d="m 1677.2808,1496.1383 c -25,0 -44.2,20.6 -44.2,47.4 0,28 18.6,48 44.4,48 25.4,0 44,-20.2 44,-47.6 0,-27.6 -18.8,-47.8 -44.2,-47.8 z m 0.2,6 c 11.4,0 15.2,10.8 15.2,43 0,30.2 -3.8,40.4 -15.2,40.4 -11.6,0 -15.6,-10 -15.6,-38.8 0,-34.4 3.6,-44.6 15.6,-44.6 z"
             style="font-weight:bold;font-family:'Times Newer Roman';-inkscape-font-specification:'Times Newer Roman,  Bold';text-align:center;text-anchor:middle"
             id="path927" />
          <path
             d="m 1888.2804,1588.7383 v -4.8 c -7.4,-0.2 -10,-3 -9.8,-11 v -49.4 c 0,-16.8 -10.2,-27.4 -26.4,-27.4 -11.4,0 -18.8,4.4 -29,17 -5.8,-12.4 -12.6,-17 -25,-17 -12.6,0 -21.2,5 -28.8,17 v -14.8 h -37.4 v 4.6 c 8.4,1 10.6,3.4 10.8,11.6 v 57.8 c -0.2,8 -2.4,10.4 -10.8,11.6 v 4.8 h 47 v -4.8 c -6.6,-0.6 -9,-3.6 -9,-11 v -52.4 c 0,-1.2 3.2,-4.8 5.8,-7 4,-3 7.2,-4.4 10.6,-4.4 7.6,0 10.6,4.6 10.6,16.2 v 47.6 c 0.2,7.6 -2.4,10.6 -9.4,11 v 4.8 h 45.8 v -4.8 c -6.6,-0.4 -9.2,-3.6 -9.2,-11 v -52.4 c 0,-1 3.2,-4.8 5.8,-6.8 4.2,-3.2 7.4,-4.6 11,-4.6 7.4,0 10.4,4.6 10.4,16.2 v 47.6 c 0.2,7.8 -2.4,10.6 -9.6,11 v 4.8 z"
             style="font-weight:bold;font-family:'Times Newer Roman';-inkscape-font-specification:'Times Newer Roman,  Bold';text-align:center;text-anchor:middle"
             id="path929" />
          <path
             d="m 1978.0801,1566.9383 -4.8,-2.6 c -7.8,9.4 -13.8,13 -22.2,13 -7.6,0 -13.4,-3.4 -17.4,-10.4 -3.8,-6.2 -5.2,-12.8 -6,-26.2 h 49.4 c -1.2,-16.4 -4.2,-25.6 -10.4,-33.2 -6.4,-7.4 -15.4,-11.4 -26.4,-11.4 -24.2,0 -40.8,19.4 -40.8,48 0,28.6 16,47.4 40.4,47.4 15.8,0 25.4,-6.2 38.2,-24.6 z m -25.2,-33.4 h -26.2 c 0.6,-23.6 4,-31.4 13.8,-31.4 5.6,0 9.2,3 10.8,9.2 0.8,3.8 1.4,9 1.6,19.2 z"
             style="font-weight:bold;font-family:'Times Newer Roman';-inkscape-font-specification:'Times Newer Roman,  Bold';text-align:center;text-anchor:middle"
             id="path931" />
          <path
             d="m 2092.8793,1506.9383 v -8.6 h -18.4 v -33.2 h -5 c -11.8,16.8 -19.6,25.6 -32.4,36.6 v 5.2 h 10.2 v 63.6 c 0,12.6 8.4,20.6 21.8,20.6 13.2,0 21.2,-6 29,-22 l -4.8,-2.2 c -4,7.6 -7,10.2 -11.2,10.2 -5.4,0 -7.6,-3.4 -7.6,-11.2 v -59 z"
             style="font-weight:bold;font-family:'Times Newer Roman';-inkscape-font-specification:'Times Newer Roman,  Bold';text-align:center;text-anchor:middle"
             id="path933" />
          <path
             d="m 2148.4787,1496.1383 c -25,0 -44.2,20.6 -44.2,47.4 0,28 18.6,48 44.4,48 25.4,0 44,-20.2 44,-47.6 0,-27.6 -18.8,-47.8 -44.2,-47.8 z m 0.2,6 c 11.4,0 15.2,10.8 15.2,43 0,30.2 -3.8,40.4 -15.2,40.4 -11.6,0 -15.6,-10 -15.6,-38.8 0,-34.4 3.6,-44.6 15.6,-44.6 z"
             style="font-weight:bold;font-family:'Times Newer Roman';-inkscape-font-specification:'Times Newer Roman,  Bold';text-align:center;text-anchor:middle"
             id="path935" />
          <path
             d="m 2384.678,1588.7383 v -4.8 c -8.6,0 -10.8,-2.8 -21.4,-27.4 l -43.6,-103 h -5.6 l -43.4,107.4 c -7.4,18.4 -9.8,21.2 -19.2,23 v 4.8 h 39.8 v -4.8 c -11.6,-0.8 -16,-3 -16,-8.2 0,-2.6 1.6,-8 5.6,-17.8 l 3,-7.8 h 44 c 6.6,15.2 9,22.4 9,26.8 0,4 -2.6,5.8 -9.4,6.4 -1,0 -3.4,0.2 -6.2,0.6 v 4.8 z m -59.8,-46.2 h -38.2 l 18.4,-47.6 z"
             style="font-weight:bold;font-family:'Times Newer Roman';-inkscape-font-specification:'Times Newer Roman,  Bold'"
             id="path937" />
          <path
             d="m 2493.6775,1566.7383 v -67.4 h -57.4 v -21.2 c 0,-13 4,-17.6 15.2,-17.6 7.6,0 14.8,2.8 14.8,5.6 0,0.8 -0.2,1 -1,3 -1.2,2.6 -1.6,4.4 -1.6,6.4 0,6.4 5,10.8 12,10.8 7.6,0 12.6,-4.8 12.6,-11.8 0,-12.4 -14.2,-19.6 -38.2,-19.6 -14.4,0 -24.8,3.2 -32.4,9.8 -6.6,5.8 -9,12.6 -9,26.4 v 8.2 h -10.8 v 9 h 10.8 v 58.4 c 0.4,14.6 -0.8,16.8 -8.4,17.6 v 4.4 h 44.4 v -4.4 c -7.6,-0.8 -8.8,-3 -8.4,-17.6 v -58.4 h 21.2 c 8,0.8 9,2.8 8.6,17.6 v 40.8 c 0.4,14.6 -0.8,16.8 -8.6,17.6 v 4.4 h 45 v -4.4 c -8,-0.8 -9.2,-3 -8.8,-17.6 z"
             style="font-weight:bold;font-family:'Times Newer Roman';-inkscape-font-specification:'Times Newer Roman,  Bold'"
             id="path939" />
          <path
             d="m 2610.4774,1588.7383 v -4.8 c -7.2,-0.4 -9.8,-3.2 -9.6,-11 v -49.4 c 0,-16.8 -10.2,-27.4 -26.4,-27.4 -12,0 -20.6,5.2 -28,17 v -14.8 h -37.4 v 4.6 c 8.6,1.4 10.2,3.2 10.4,11.6 v 57.8 c -0.2,8.4 -1.8,10.2 -10.4,11.6 v 4.8 h 47.2 v -4.8 c -7,-0.8 -9.6,-3.8 -9.6,-11 v -52.4 c 0,-0.8 1.4,-2.8 3.4,-4.6 4.2,-4.4 9,-6.8 13.4,-6.8 6.8,0 10.2,5.4 10.2,16.2 v 47.6 c -0.2,7.4 -2.8,10.6 -9.2,11 v 4.8 z"
             style="font-weight:bold;font-family:'Times Newer Roman';-inkscape-font-specification:'Times Newer Roman,  Bold'"
             id="path941" />
          <path
             d="m 2711.8774,1580.3383 -3,-4.2 -2,2 c -0.6,0.6 -1,0.8 -2,0.8 -2.8,0 -4.2,-1.6 -4.2,-4.8 v -51.2 c 0,-16.6 -14.8,-26.8 -38.8,-26.8 -22.2,0 -37,10 -37,24.6 0,8.2 4.6,13 12.6,13 8,0 13.4,-4.6 13.4,-11.4 0,-2.8 -1,-5.2 -3.6,-8.4 -1.6,-2 -2.2,-3.2 -2.2,-4.4 0,-4 5.4,-7.2 12.4,-7.2 11.4,0 16.4,5.2 16.4,17.2 v 14.4 c -23.4,7 -33,10.8 -40.2,15.8 -8.6,6 -12.6,12.6 -12.6,21 0,12 9,20.8 21.8,20.8 11.2,0 20.2,-4 31,-13.8 2,10 6.4,13.8 16,13.8 8.6,0 14.6,-3 22,-11.2 z m -38.2,-39.6 v 28.4 c -5.4,6.2 -9.2,8.4 -14,8.4 -6,0 -10,-5.4 -10,-13.2 0,-11.2 8.2,-19.4 24,-23.6 z"
             style="font-weight:bold;font-family:'Times Newer Roman';-inkscape-font-specification:'Times Newer Roman,  Bold'"
             id="path943" />
          <path
             d="m 2815.6767,1588.7383 v -4.8 c -6.8,-0.6 -9.2,-3.6 -9.2,-11 v -74.6 h -37.6 v 4.6 c 8.6,1.6 10.2,3.6 10.4,11.6 v 57.8 c -0.2,8.2 -1.6,9.8 -10.4,11.6 v 4.8 z m -23,-135.4 c -8.4,0 -15.2,6.8 -15.2,15.2 0,8.6 6.4,15.2 15,15.2 8.8,0 15.4,-6.4 15.4,-15 0,-8.6 -6.8,-15.4 -15.2,-15.4 z"
             style="font-weight:bold;font-family:'Times Newer Roman';-inkscape-font-specification:'Times Newer Roman,  Bold'"
             id="path945" />
          <path
             d="m 2927.2766,1588.7383 v -4.8 c -7.2,-0.4 -9.8,-3.2 -9.6,-11 v -49.4 c 0,-16.8 -10.2,-27.4 -26.4,-27.4 -12,0 -20.6,5.2 -28,17 v -14.8 h -37.4 v 4.6 c 8.6,1.4 10.2,3.2 10.4,11.6 v 57.8 c -0.2,8.4 -1.8,10.2 -10.4,11.6 v 4.8 h 47.2 v -4.8 c -7,-0.8 -9.6,-3.8 -9.6,-11 v -52.4 c 0,-0.8 1.4,-2.8 3.4,-4.6 4.2,-4.4 9,-6.8 13.4,-6.8 6.8,0 10.2,5.4 10.2,16.2 v 47.6 c -0.2,7.4 -2.8,10.6 -9.2,11 v 4.8 z"
             style="font-weight:bold;font-family:'Times Newer Roman';-inkscape-font-specification:'Times Newer Roman,  Bold'"
             id="path947" />
          <path
             d="m 2994.2766,1524.9383 h 5 v -28.4 h -4.4 c -1,2.8 -2.2,3.8 -4.8,3.8 -1.2,0 -3,-0.4 -6.2,-1.4 -6.2,-2 -10.6,-2.8 -15.4,-2.8 -17.6,0 -30.6,12 -30.6,28.6 0,13 8.2,22 27.8,30.4 13.6,5.8 19,10.8 19,17 0,7.8 -6,12.8 -14.8,12.8 -13.6,0 -22.8,-8.8 -27,-26 h -5.4 v 32.4 h 5 c 2,-4.4 3.2,-5.6 5,-5.6 1.2,0 2.6,0.4 4.4,1.2 6,2.4 15.8,4.6 21.4,4.6 17.8,0 30.2,-12.2 30.2,-29.8 0,-14 -7.6,-22.4 -27,-30.6 -13.6,-5.6 -19,-10.6 -19,-17.2 0,-6.6 5.4,-11.4 13,-11.4 5.2,0 10.4,2.2 14.6,6.2 4.2,4 6.4,7.6 9.2,16.2 z"
             style="font-weight:bold;font-family:'Times Newer Roman';-inkscape-font-specification:'Times Newer Roman,  Bold'"
             id="path949" />
          <path
             d="m 3068.4763,1506.9383 v -8.6 h -18.4 v -33.2 h -5 c -11.8,16.8 -19.6,25.6 -32.4,36.6 v 5.2 h 10.2 v 63.6 c 0,12.6 8.4,20.6 21.8,20.6 13.2,0 21.2,-6 29,-22 l -4.8,-2.2 c -4,7.6 -7,10.2 -11.2,10.2 -5.4,0 -7.6,-3.4 -7.6,-11.2 v -59 z"
             style="font-weight:bold;font-family:'Times Newer Roman';-inkscape-font-specification:'Times Newer Roman,  Bold'"
             id="path951" />
          <path
             d="m 3173.2757,1580.3383 -3,-4.2 -2,2 c -0.6,0.6 -1,0.8 -2,0.8 -2.8,0 -4.2,-1.6 -4.2,-4.8 v -51.2 c 0,-16.6 -14.8,-26.8 -38.8,-26.8 -22.2,0 -37,10 -37,24.6 0,8.2 4.6,13 12.6,13 8,0 13.4,-4.6 13.4,-11.4 0,-2.8 -1,-5.2 -3.6,-8.4 -1.6,-2 -2.2,-3.2 -2.2,-4.4 0,-4 5.4,-7.2 12.4,-7.2 11.4,0 16.4,5.2 16.4,17.2 v 14.4 c -23.4,7 -33,10.8 -40.2,15.8 -8.6,6 -12.6,12.6 -12.6,21 0,12 9,20.8 21.8,20.8 11.2,0 20.2,-4 31,-13.8 2,10 6.4,13.8 16,13.8 8.6,0 14.6,-3 22,-11.2 z m -38.2,-39.6 v 28.4 c -5.4,6.2 -9.2,8.4 -14,8.4 -6,0 -10,-5.4 -10,-13.2 0,-11.2 8.2,-19.4 24,-23.6 z"
             style="font-weight:bold;font-family:'Times Newer Roman';-inkscape-font-specification:'Times Newer Roman,  Bold'"
             id="path953" />
          <path
             d="m 3227.0753,1588.7383 v -4.8 c -6.2,0.2 -9.6,-3.8 -9.6,-11.6 v -116 h -37.2 v 4.6 c 6.6,0.4 9.8,4 10,11.4 v 100 c -0.2,7.4 -3.8,11.6 -10,11.6 v 4.8 z"
             style="font-weight:bold;font-family:'Times Newer Roman';-inkscape-font-specification:'Times Newer Roman,  Bold'"
             id="path955" />
          <path
             d="m 3282.6753,1588.7383 v -4.8 c -6.2,0.2 -9.6,-3.8 -9.6,-11.6 v -116 h -37.2 v 4.6 c 6.6,0.4 9.8,4 10,11.4 v 100 c -0.2,7.4 -3.8,11.6 -10,11.6 v 4.8 z"
             style="font-weight:bold;font-family:'Times Newer Roman';-inkscape-font-specification:'Times Newer Roman,  Bold'"
             id="path957" />
          <path
             d="m 3372.0754,1566.9383 -4.8,-2.6 c -7.8,9.4 -13.8,13 -22.2,13 -7.6,0 -13.4,-3.4 -17.4,-10.4 -3.8,-6.2 -5.2,-12.8 -6,-26.2 h 49.4 c -1.2,-16.4 -4.2,-25.6 -10.4,-33.2 -6.4,-7.4 -15.4,-11.4 -26.4,-11.4 -24.2,0 -40.8,19.4 -40.8,48 0,28.6 16,47.4 40.4,47.4 15.8,0 25.4,-6.2 38.2,-24.6 z m -25.2,-33.4 h -26.2 c 0.6,-23.6 4,-31.4 13.8,-31.4 5.6,0 9.2,3 10.8,9.2 0.8,3.8 1.4,9 1.6,19.2 z"
             style="font-weight:bold;font-family:'Times Newer Roman';-inkscape-font-specification:'Times Newer Roman,  Bold'"
             id="path959" />
          <path
             d="m 3435.075,1588.7383 v -4.8 c -11.8,-0.6 -14.2,-3 -14.2,-15.4 v -37 c 0,-10.2 5.4,-18.6 11.8,-18.6 1.8,0 3.4,1.4 5.6,4.4 3.8,5.2 6.8,7 11.8,7 7.4,0 12.4,-5.4 12.4,-13 0,-8.8 -6.6,-15.2 -15.8,-15.2 -10.2,0 -17.2,4.8 -26.6,18.2 v -16 h -37 v 4.6 c 8,1 10.4,3.6 10.6,11.6 v 57.8 c -0.2,8 -2.2,10.4 -10.6,11.6 v 4.8 z"
             style="font-weight:bold;font-family:'Times Newer Roman';-inkscape-font-specification:'Times Newer Roman,  Bold'"
             id="path961" />
          <path
             d="m 3490.2745,1558.1383 c -8.8,0 -16.4,7.6 -16.4,16.6 0,9.4 7,16.6 16.4,16.6 9.4,0 16.8,-7.2 16.8,-16.4 0,-9.2 -7.6,-16.8 -16.8,-16.8 z"
             style="font-weight:bold;font-family:'Times Newer Roman';-inkscape-font-specification:'Times Newer Roman,  Bold';text-align:center;text-anchor:middle"
             id="path963" />
          <path
             d="m 657.88382,1846.3565 v 4.8 h 65.4 v -4.8 c -15.2,-1.8 -16.8,-3.6 -17.2,-18.2 v -36.4 c 26.6,-0.2 33.2,-0.8 41.8,-4.2 15.8,-6.2 24.4,-18 24.4,-33.4 0,-22.6 -18.4,-35.4 -51.4,-35.4 h -63 v 4.8 c 13.4,1 16,4 16.4,18 v 86.6 c -0.2,12.2 -3,16.4 -11.8,17.4 -0.6,0 -2.6,0.4 -4.6,0.8 z m 48.2,-61.4 v -52.6 c 0,-4.6 3.2,-6.8 9.8,-6.8 16.2,0 22.8,8.6 22.8,29.6 0,12.6 -2.2,20 -7.6,24.4 -4.6,4 -11,5.4 -25,5.4 z"
             style="font-weight:bold;font-family:'Times Newer Roman';-inkscape-font-specification:'Times Newer Roman,  Bold';text-align:center;text-anchor:middle"
             id="path965" />
          <path
             d="m 824.88307,1851.1565 v -4.8 c -6.2,0.2 -9.6,-3.8 -9.6,-11.6 v -116 h -37.2 v 4.6 c 6.6,0.4 9.8,4 10,11.4 v 100 c -0.2,7.4 -3.8,11.6 -10,11.6 v 4.8 z"
             style="font-weight:bold;font-family:'Times Newer Roman';-inkscape-font-specification:'Times Newer Roman,  Bold';text-align:center;text-anchor:middle"
             id="path967" />
          <path
             d="m 914.28305,1829.3565 -4.8,-2.6 c -7.8,9.4 -13.8,13 -22.2,13 -7.6,0 -13.4,-3.4 -17.4,-10.4 -3.8,-6.2 -5.2,-12.8 -6,-26.2 h 49.4 c -1.2,-16.4 -4.2,-25.6 -10.4,-33.2 -6.4,-7.4 -15.4,-11.4 -26.4,-11.4 -24.2,0 -40.8,19.4 -40.8,48 0,28.6 16,47.4 40.4,47.4 15.8,0 25.4,-6.2 38.2,-24.6 z m -25.2,-33.4 h -26.2 c 0.6,-23.6 4,-31.4 13.8,-31.4 5.6,0 9.2,3 10.8,9.2 0.8,3.8 1.4,9 1.6,19.2 z"
             style="font-weight:bold;font-family:'Times Newer Roman';-inkscape-font-specification:'Times Newer Roman,  Bold';text-align:center;text-anchor:middle"
             id="path969" />
          <path
             d="m 1015.6826,1842.7565 -3,-4.2 -2,2 c -0.6,0.6 -1,0.8 -2,0.8 -2.8,0 -4.2,-1.6 -4.2,-4.8 v -51.2 c 0,-16.6 -14.79998,-26.8 -38.79998,-26.8 -22.2,0 -37,10 -37,24.6 0,8.2 4.6,13 12.6,13 8,0 13.4,-4.6 13.4,-11.4 0,-2.8 -1,-5.2 -3.6,-8.4 -1.6,-2 -2.2,-3.2 -2.2,-4.4 0,-4 5.4,-7.2 12.4,-7.2 11.4,0 16.4,5.2 16.4,17.2 v 14.4 c -23.4,7 -33,10.8 -40.2,15.8 -8.6,6 -12.6,12.6 -12.6,21 0,12 9,20.8 21.8,20.8 11.2,0 20.2,-4 31,-13.8 2,10 6.4,13.8 16,13.8 8.59998,0 14.59998,-3 21.99998,-11.2 z m -38.19998,-39.6 v 28.4 c -5.4,6.2 -9.2,8.4 -14,8.4 -6,0 -10,-5.4 -10,-13.2 0,-11.2 8.2,-19.4 24,-23.6 z"
             style="font-weight:bold;font-family:'Times Newer Roman';-inkscape-font-specification:'Times Newer Roman,  Bold';text-align:center;text-anchor:middle"
             id="path971" />
          <path
             d="m 1082.482,1787.3565 h 5 v -28.4 h -4.4 c -1,2.8 -2.2,3.8 -4.8,3.8 -1.2,0 -3,-0.4 -6.2,-1.4 -6.2,-2 -10.6,-2.8 -15.4,-2.8 -17.6,0 -30.6,12 -30.6,28.6 0,13 8.2,22 27.8,30.4 13.6,5.8 19,10.8 19,17 0,7.8 -6,12.8 -14.8,12.8 -13.6,0 -22.8,-8.8 -27,-26 h -5.4 v 32.4 h 5 c 2,-4.4 3.2,-5.6 5,-5.6 1.2,0 2.6,0.4 4.4,1.2 6,2.4 15.8,4.6 21.4,4.6 17.8,0 30.2,-12.2 30.2,-29.8 0,-14 -7.6,-22.4 -27,-30.6 -13.6,-5.6 -19,-10.6 -19,-17.2 0,-6.6 5.4,-11.4 13,-11.4 5.2,0 10.4,2.2 14.6,6.2 4.2,4 6.4,7.6 9.2,16.2 z"
             style="font-weight:bold;font-family:'Times Newer Roman';-inkscape-font-specification:'Times Newer Roman,  Bold';text-align:center;text-anchor:middle"
             id="path973" />
          <path
             d="m 1182.282,1829.3565 -4.8,-2.6 c -7.8,9.4 -13.8,13 -22.2,13 -7.6,0 -13.4,-3.4 -17.4,-10.4 -3.8,-6.2 -5.2,-12.8 -6,-26.2 h 49.4 c -1.2,-16.4 -4.2,-25.6 -10.4,-33.2 -6.4,-7.4 -15.4,-11.4 -26.4,-11.4 -24.2,0 -40.8,19.4 -40.8,48 0,28.6 16,47.4 40.4,47.4 15.8,0 25.4,-6.2 38.2,-24.6 z m -25.2,-33.4 h -26.2 c 0.6,-23.6 4,-31.4 13.8,-31.4 5.6,0 9.2,3 10.8,9.2 0.8,3.8 1.4,9 1.6,19.2 z"
             style="font-weight:bold;font-family:'Times Newer Roman';-inkscape-font-specification:'Times Newer Roman,  Bold';text-align:center;text-anchor:middle"
             id="path975" />
          <path
             d="m 1196.4815,1882.1565 2.2,4.2 c 22.6,-13 32.4,-26 32.4,-42.8 0,-13.6 -8,-22.8 -19.8,-22.8 -9.8,0 -16.2,6.4 -16.2,16.2 0,9.2 5.8,15.4 14.2,15.4 1,0 2.2,0 3.2,-0.2 0.6,-0.2 1.2,-0.2 1.4,-0.2 2.2,0 3.8,1.8 3.8,4.2 0,7.6 -6.6,15.6 -21.2,26 z"
             style="font-weight:bold;font-family:'Times Newer Roman';-inkscape-font-specification:'Times Newer Roman,  Bold';text-align:center;text-anchor:middle"
             id="path977" />
          <path
             d="m 1345.4807,1851.1565 v -4.8 c -11.8,-0.6 -14.2,-3 -14.2,-15.4 v -37 c 0,-10.2 5.4,-18.6 11.8,-18.6 1.8,0 3.4,1.4 5.6,4.4 3.8,5.2 6.8,7 11.8,7 7.4,0 12.4,-5.4 12.4,-13 0,-8.8 -6.6,-15.2 -15.8,-15.2 -10.2,0 -17.2,4.8 -26.6,18.2 v -16 h -37 v 4.6 c 8,1 10.4,3.6 10.6,11.6 v 57.8 c -0.2,8 -2.2,10.4 -10.6,11.6 v 4.8 z"
             style="font-weight:bold;font-family:'Times Newer Roman';-inkscape-font-specification:'Times Newer Roman,  Bold';text-align:center;text-anchor:middle"
             id="path979" />
          <path
             d="m 1458.0804,1829.3565 -4.8,-2.6 c -7.8,9.4 -13.8,13 -22.2,13 -7.6,0 -13.4,-3.4 -17.4,-10.4 -3.8,-6.2 -5.2,-12.8 -6,-26.2 h 49.4 c -1.2,-16.4 -4.2,-25.6 -10.4,-33.2 -6.4,-7.4 -15.4,-11.4 -26.4,-11.4 -24.2,0 -40.8,19.4 -40.8,48 0,28.6 16,47.4 40.4,47.4 15.8,0 25.4,-6.2 38.2,-24.6 z m -25.2,-33.4 h -26.2 c 0.6,-23.6 4,-31.4 13.8,-31.4 5.6,0 9.2,3 10.8,9.2 0.8,3.8 1.4,9 1.6,19.2 z"
             style="font-weight:bold;font-family:'Times Newer Roman';-inkscape-font-specification:'Times Newer Roman,  Bold';text-align:center;text-anchor:middle"
             id="path981" />
          <path
             d="m 1559.4799,1842.7565 -3,-4.2 -2,2 c -0.6,0.6 -1,0.8 -2,0.8 -2.8,0 -4.2,-1.6 -4.2,-4.8 v -51.2 c 0,-16.6 -14.8,-26.8 -38.8,-26.8 -22.2,0 -37,10 -37,24.6 0,8.2 4.6,13 12.6,13 8,0 13.4,-4.6 13.4,-11.4 0,-2.8 -1,-5.2 -3.6,-8.4 -1.6,-2 -2.2,-3.2 -2.2,-4.4 0,-4 5.4,-7.2 12.4,-7.2 11.4,0 16.4,5.2 16.4,17.2 v 14.4 c -23.4,7 -33,10.8 -40.2,15.8 -8.6,6 -12.6,12.6 -12.6,21 0,12 9,20.8 21.8,20.8 11.2,0 20.2,-4 31,-13.8 2,10 6.4,13.8 16,13.8 8.6,0 14.6,-3 22,-11.2 z m -38.2,-39.6 v 28.4 c -5.4,6.2 -9.2,8.4 -14,8.4 -6,0 -10,-5.4 -10,-13.2 0,-11.2 8.2,-19.4 24,-23.6 z"
             style="font-weight:bold;font-family:'Times Newer Roman';-inkscape-font-specification:'Times Newer Roman,  Bold';text-align:center;text-anchor:middle"
             id="path983" />
          <path
             d="m 1668.4795,1847.1565 v -4.4 c -9,-0.6 -11.6,-3.2 -11.6,-11.4 v -112.6 h -42 v 4.6 c 12.8,0.8 14.4,2.2 14.8,11.4 v 35.8 c -8.4,-9 -14.4,-12 -23.4,-12 -21.6,0 -37.6,21 -37.6,49.4 0,26.8 14.8,46 35.6,46 10.4,0 16.8,-3.2 26,-13 v 12.8 c 9,-2.6 14,-3.6 26,-5 z m -38.8,-65.6 v 47.6 c 0,1.2 -2,4.6 -4.2,7.2 -4,4.4 -8,6.6 -12.6,6.6 -10.4,0 -15.2,-11.6 -15.2,-36.6 0,-25.2 5.2,-36.8 16.6,-36.8 6.6,0 12.8,4.8 15.4,12 z"
             style="font-weight:bold;font-family:'Times Newer Roman';-inkscape-font-specification:'Times Newer Roman,  Bold';text-align:center;text-anchor:middle"
             id="path985" />
          <path
             d="m 1784.2791,1769.3565 v -8.6 h -18.4 v -33.2 h -5 c -11.8,16.8 -19.6,25.6 -32.4,36.6 v 5.2 h 10.2 v 63.6 c 0,12.6 8.4,20.6 21.8,20.6 13.2,0 21.2,-6 29,-22 l -4.8,-2.2 c -4,7.6 -7,10.2 -11.2,10.2 -5.4,0 -7.6,-3.4 -7.6,-11.2 v -59 z"
             style="font-weight:bold;font-family:'Times Newer Roman';-inkscape-font-specification:'Times Newer Roman,  Bold';text-align:center;text-anchor:middle"
             id="path987" />
          <path
             d="m 1896.0787,1851.1565 v -4.8 c -6.8,-0.2 -9.6,-3.6 -9.6,-11.6 v -48.6 c 0,-16.8 -10.4,-27.6 -26.4,-27.6 -10.4,0 -17.6,3.8 -27.8,15.2 v -55 h -37.6 v 4.6 c 9,1.8 10.2,3 10.4,11.4 v 100 c -0.2,8.4 -1.8,10.2 -10.4,11.6 v 4.8 h 47.2 v -4.8 c -7,-0.8 -9.6,-3.8 -9.6,-11 v -52.4 c 0,-0.6 1.4,-2.6 3.4,-4.6 4.2,-4.2 9,-6.6 13.4,-6.6 6.8,0 10.2,5.4 10.2,16.2 v 47.4 c -0.2,7.4 -2.8,10.4 -9.2,11 v 4.8 z"
             style="font-weight:bold;font-family:'Times Newer Roman';-inkscape-font-specification:'Times Newer Roman,  Bold';text-align:center;text-anchor:middle"
             id="path989" />
          <path
             d="m 1986.0786,1829.3565 -4.8,-2.6 c -7.8,9.4 -13.8,13 -22.2,13 -7.6,0 -13.4,-3.4 -17.4,-10.4 -3.8,-6.2 -5.2,-12.8 -6,-26.2 h 49.4 c -1.2,-16.4 -4.2,-25.6 -10.4,-33.2 -6.4,-7.4 -15.4,-11.4 -26.4,-11.4 -24.2,0 -40.8,19.4 -40.8,48 0,28.6 16,47.4 40.4,47.4 15.8,0 25.4,-6.2 38.2,-24.6 z m -25.2,-33.4 h -26.2 c 0.6,-23.6 4,-31.4 13.8,-31.4 5.6,0 9.2,3 10.8,9.2 0.8,3.8 1.4,9 1.6,19.2 z"
             style="font-weight:bold;font-family:'Times Newer Roman';-inkscape-font-specification:'Times Newer Roman,  Bold';text-align:center;text-anchor:middle"
             id="path991" />
          <path
             d="m 2182.078,1851.1565 v -4.8 c -3.6,0 -6.2,-1.2 -8,-3.8 l -39.4,-55.8 c 11.6,-3.8 16.6,-6.2 22,-11.2 5.6,-5.2 8.8,-13.2 8.8,-22 0,-22.6 -19.2,-34.8 -55.2,-34.8 h -63.2 v 4.8 c 14,0.8 16.8,3.6 17.2,18 v 86.6 c -0.4,14.6 -2.2,16.6 -17.2,18.2 v 4.8 h 66.2 v -4.8 c -15,-2 -16.8,-4 -17.2,-18.2 v -38.4 h 5.2 l 40.6,61.4 z m -86,-67.6 v -50 c 0,-1.2 0.8,-4 1.4,-5.2 1.2,-2 4.2,-3 9.2,-3 18,0 25.4,8.4 25.4,29 0,12.6 -2.8,20.2 -9.2,24.4 -5.2,3.4 -11.8,4.6 -26.8,4.8 z"
             style="font-weight:bold;font-family:'Times Newer Roman';-inkscape-font-specification:'Times Newer Roman,  Bold'"
             id="path993" />
          <path
             d="m 2194.0773,1718.7565 v 4.8 c 13.2,0.6 16.8,3.6 17.2,14 v 94.8 c -0.4,10.4 -3.2,12.8 -17.2,14 v 4.8 h 114.6 l 7.8,-40.8 h -5.4 c -6.2,13.2 -10.2,18.8 -17.2,24.4 -9,7.2 -19.6,10.4 -34.6,10.4 -12.6,0 -16.2,-2.4 -16.2,-11 v -47.4 c 21.4,0 29.4,7.6 31.8,30.4 h 5 v -66.4 h -5 c -3,22.4 -10.8,29.6 -31.8,29.4 v -45.6 c 0,-7.4 2.6,-9.2 12.8,-9.2 31.8,0 41.4,6.8 46.4,32.8 h 4.8 v -39.4 z"
             style="font-weight:bold;font-family:'Times Newer Roman';-inkscape-font-specification:'Times Newer Roman,  Bold'"
             id="path995" />
          <path
             d="m 2459.4772,1851.1565 v -4.8 c -8.6,0 -10.8,-2.8 -21.4,-27.4 l -43.6,-103 h -5.6 l -43.4,107.4 c -7.4,18.4 -9.8,21.2 -19.2,23 v 4.8 h 39.8 v -4.8 c -11.6,-0.8 -16,-3 -16,-8.2 0,-2.6 1.6,-8 5.6,-17.8 l 3,-7.8 h 44 c 6.6,15.2 9,22.4 9,26.8 0,4 -2.6,5.8 -9.4,6.4 -1,0 -3.4,0.2 -6.2,0.6 v 4.8 z m -59.8,-46.2 h -38.2 l 18.4,-47.6 z"
             style="font-weight:bold;font-family:'Times Newer Roman';-inkscape-font-specification:'Times Newer Roman,  Bold'"
             id="path997" />
          <path
             d="m 2471.6769,1846.3565 v 4.8 h 62 c 42.2,0 70.4,-27 70.4,-67.4 0,-40.6 -27.2,-65 -72.6,-65 h -59.8 v 4.8 c 12.2,1 16,4 16.2,13.2 v 96.6 c 0,8.8 -5.2,12.8 -16.2,13 z m 48,-13.4 v -100.8 c 0,-4.6 3.8,-6.8 11.6,-6.8 14,0 24,6.4 30.8,20 5.2,10.2 8,24.6 8,41.2 0,18.6 -3.8,35.4 -10.2,44.2 -6.6,9.2 -16,13.6 -28.8,13.6 -8.8,0 -11.4,-2.6 -11.4,-11.4 z"
             style="font-weight:bold;font-family:'Times Newer Roman';-inkscape-font-specification:'Times Newer Roman,  Bold'"
             id="path999" />
          <path
             d="m 2794.0765,1851.1565 v -4.8 c -15,-2 -16.8,-4 -17.2,-18.2 v -86.4 c 0.4,-14.4 3.2,-17.4 17.2,-18.2 v -4.8 h -49.4 l -39.2,92.4 -39,-92.4 h -49.6 v 4.8 c 14,1.2 17.2,3.8 17.4,14 v 93 c -0.2,11.8 -2.8,14.2 -17.8,15.8 v 4.8 h 45.8 v -4.8 c -15.8,-1.2 -19.6,-5 -19.8,-19.4 v -92 l 49.4,116.2 h 5.2 l 49.4,-119.2 v 99.6 c -0.4,11.2 -3,13.6 -17.4,14.8 v 4.8 z"
             style="font-weight:bold;font-family:'Times Newer Roman';-inkscape-font-specification:'Times Newer Roman,  Bold'"
             id="path1001" />
          <path
             d="m 2805.2762,1718.7565 v 4.8 c 13.2,0.6 16.8,3.6 17.2,14 v 94.8 c -0.4,10.4 -3.2,12.8 -17.2,14 v 4.8 h 114.6 l 7.8,-40.8 h -5.4 c -6.2,13.2 -10.2,18.8 -17.2,24.4 -9,7.2 -19.6,10.4 -34.6,10.4 -12.6,0 -16.2,-2.4 -16.2,-11 v -47.4 c 21.4,0 29.4,7.6 31.8,30.4 h 5 v -66.4 h -5 c -3,22.4 -10.8,29.6 -31.8,29.4 v -45.6 c 0,-7.4 2.6,-9.2 12.8,-9.2 31.8,0 41.4,6.8 46.4,32.8 h 4.8 v -39.4 z"
             style="font-weight:bold;font-family:'Times Newer Roman';-inkscape-font-specification:'Times Newer Roman,  Bold'"
             id="path1003" />
          <path
             d="m 2959.0761,1820.5565 c -8.8,0 -16.4,7.6 -16.4,16.6 0,9.4 7,16.6 16.4,16.6 9.4,0 16.8,-7.2 16.8,-16.4 0,-9.2 -7.6,-16.8 -16.8,-16.8 z"
             style="font-weight:bold;font-family:'Times Newer Roman';-inkscape-font-specification:'Times Newer Roman,  Bold'"
             id="path1005" />
          <path
             d="m 3166.2759,1851.1565 v -4.8 c -15,-2 -16.8,-4 -17.2,-18.2 v -86.4 c 0.4,-14.4 3.2,-17.4 17.2,-18.2 v -4.8 h -49.4 l -39.2,92.4 -39,-92.4 h -49.6 v 4.8 c 14,1.2 17.2,3.8 17.4,14 v 93 c -0.2,11.8 -2.8,14.2 -17.8,15.8 v 4.8 h 45.8 v -4.8 c -15.8,-1.2 -19.6,-5 -19.8,-19.4 v -92 l 49.4,116.2 h 5.2 l 49.4,-119.2 v 99.6 c -0.4,11.2 -3,13.6 -17.4,14.8 v 4.8 z"
             style="font-weight:bold;font-family:'Times Newer Roman';-inkscape-font-specification:'Times Newer Roman,  Bold'"
             id="path1007" />
          <path
             d="m 3177.0754,1846.3565 v 4.8 h 62 c 42.2,0 70.4,-27 70.4,-67.4 0,-40.6 -27.2,-65 -72.6,-65 h -59.8 v 4.8 c 12.2,1 16,4 16.2,13.2 v 96.6 c 0,8.8 -5.2,12.8 -16.2,13 z m 48,-13.4 v -100.8 c 0,-4.6 3.8,-6.8 11.6,-6.8 14,0 24,6.4 30.8,20 5.2,10.2 8,24.6 8,41.2 0,18.6 -3.8,35.4 -10.2,44.2 -6.6,9.2 -16,13.6 -28.8,13.6 -8.8,0 -11.4,-2.6 -11.4,-11.4 z"
             style="font-weight:bold;font-family:'Times Newer Roman';-inkscape-font-specification:'Times Newer Roman,  Bold'"
             id="path1009" />
          <path
             d="m 3468.2748,1829.1565 v -67.4 h -57.4 v -21.2 c 0,-13 4,-17.6 15.2,-17.6 7.6,0 14.8,2.8 14.8,5.6 0,0.8 -0.2,1 -1,3 -1.2,2.6 -1.6,4.4 -1.6,6.4 0,6.4 5,10.8 12,10.8 7.6,0 12.6,-4.8 12.6,-11.8 0,-12.4 -14.2,-19.6 -38.2,-19.6 -14.4,0 -24.8,3.2 -32.4,9.8 -6.6,5.8 -9,12.6 -9,26.4 v 8.2 h -10.8 v 9 h 10.8 v 58.4 c 0.4,14.6 -0.8,16.8 -8.4,17.6 v 4.4 h 44.4 v -4.4 c -7.6,-0.8 -8.8,-3 -8.4,-17.6 v -58.4 h 21.2 c 8,0.8 9,2.8 8.6,17.6 v 40.8 c 0.4,14.6 -0.8,16.8 -8.6,17.6 v 4.4 h 45 v -4.4 c -8,-0.8 -9.2,-3 -8.8,-17.6 z"
             style="font-weight:bold;font-family:'Times Newer Roman';-inkscape-font-specification:'Times Newer Roman,  Bold';text-align:center;text-anchor:middle"
             id="path1011" />
          <path
             d="m 3529.0745,1851.1565 v -4.8 c -6.2,0.2 -9.6,-3.8 -9.6,-11.6 v -116 h -37.2 v 4.6 c 6.6,0.4 9.8,4 10,11.4 v 100 c -0.2,7.4 -3.8,11.6 -10,11.6 v 4.8 z"
             style="font-weight:bold;font-family:'Times Newer Roman';-inkscape-font-specification:'Times Newer Roman,  Bold';text-align:center;text-anchor:middle"
             id="path1013" />
          <path
             d="m 3618.4746,1829.3565 -4.8,-2.6 c -7.8,9.4 -13.8,13 -22.2,13 -7.6,0 -13.4,-3.4 -17.4,-10.4 -3.8,-6.2 -5.2,-12.8 -6,-26.2 h 49.4 c -1.2,-16.4 -4.2,-25.6 -10.4,-33.2 -6.4,-7.4 -15.4,-11.4 -26.4,-11.4 -24.2,0 -40.8,19.4 -40.8,48 0,28.6 16,47.4 40.4,47.4 15.8,0 25.4,-6.2 38.2,-24.6 z m -25.2,-33.4 h -26.2 c 0.6,-23.6 4,-31.4 13.8,-31.4 5.6,0 9.2,3 10.8,9.2 0.8,3.8 1.4,9 1.6,19.2 z"
             style="font-weight:bold;font-family:'Times Newer Roman';-inkscape-font-specification:'Times Newer Roman,  Bold';text-align:center;text-anchor:middle"
             id="path1015" />
          <path
             d="m 3685.6741,1787.3565 h 5 v -28.4 h -4.4 c -1,2.8 -2.2,3.8 -4.8,3.8 -1.2,0 -3,-0.4 -6.2,-1.4 -6.2,-2 -10.6,-2.8 -15.4,-2.8 -17.6,0 -30.6,12 -30.6,28.6 0,13 8.2,22 27.8,30.4 13.6,5.8 19,10.8 19,17 0,7.8 -6,12.8 -14.8,12.8 -13.6,0 -22.8,-8.8 -27,-26 h -5.4 v 32.4 h 5 c 2,-4.4 3.2,-5.6 5,-5.6 1.2,0 2.6,0.4 4.4,1.2 6,2.4 15.8,4.6 21.4,4.6 17.8,0 30.2,-12.2 30.2,-29.8 0,-14 -7.6,-22.4 -27,-30.6 -13.6,-5.6 -19,-10.6 -19,-17.2 0,-6.6 5.4,-11.4 13,-11.4 5.2,0 10.4,2.2 14.6,6.2 4.2,4 6.4,7.6 9.2,16.2 z"
             style="font-weight:bold;font-family:'Times Newer Roman';-inkscape-font-specification:'Times Newer Roman,  Bold';text-align:center;text-anchor:middle"
             id="path1017" />
          <path
             d="m 3847.8737,1842.7565 -3,-4.2 -2,2 c -0.6,0.6 -1,0.8 -2,0.8 -2.8,0 -4.2,-1.6 -4.2,-4.8 v -51.2 c 0,-16.6 -14.8,-26.8 -38.8,-26.8 -22.2,0 -37,10 -37,24.6 0,8.2 4.6,13 12.6,13 8,0 13.4,-4.6 13.4,-11.4 0,-2.8 -1,-5.2 -3.6,-8.4 -1.6,-2 -2.2,-3.2 -2.2,-4.4 0,-4 5.4,-7.2 12.4,-7.2 11.4,0 16.4,5.2 16.4,17.2 v 14.4 c -23.4,7 -33,10.8 -40.2,15.8 -8.6,6 -12.6,12.6 -12.6,21 0,12 9,20.8 21.8,20.8 11.2,0 20.2,-4 31,-13.8 2,10 6.4,13.8 16,13.8 8.6,0 14.6,-3 22,-11.2 z m -38.2,-39.6 v 28.4 c -5.4,6.2 -9.2,8.4 -14,8.4 -6,0 -10,-5.4 -10,-13.2 0,-11.2 8.2,-19.4 24,-23.6 z"
             style="font-weight:bold;font-family:'Times Newer Roman';-inkscape-font-specification:'Times Newer Roman,  Bold';text-align:center;text-anchor:middle"
             id="path1019" />
          <path
             d="m 3957.6734,1851.1565 v -4.8 c -7.2,-0.4 -9.8,-3.2 -9.6,-11 v -49.4 c 0,-16.8 -10.2,-27.4 -26.4,-27.4 -12,0 -20.6,5.2 -28,17 v -14.8 h -37.4 v 4.6 c 8.6,1.4 10.2,3.2 10.4,11.6 v 57.8 c -0.2,8.4 -1.8,10.2 -10.4,11.6 v 4.8 h 47.2 v -4.8 c -7,-0.8 -9.6,-3.8 -9.6,-11 v -52.4 c 0,-0.8 1.4,-2.8 3.4,-4.6 4.2,-4.4 9,-6.8 13.4,-6.8 6.8,0 10.2,5.4 10.2,16.2 v 47.6 c -0.2,7.4 -2.8,10.6 -9.2,11 v 4.8 z"
             style="font-weight:bold;font-family:'Times Newer Roman';-inkscape-font-specification:'Times Newer Roman,  Bold';text-align:center;text-anchor:middle"
             id="path1021" />
          <path
             d="m 4068.0734,1847.1565 v -4.4 c -9,-0.6 -11.6,-3.2 -11.6,-11.4 v -112.6 h -42 v 4.6 c 12.8,0.8 14.4,2.2 14.8,11.4 v 35.8 c -8.4,-9 -14.4,-12 -23.4,-12 -21.6,0 -37.6,21 -37.6,49.4 0,26.8 14.8,46 35.6,46 10.4,0 16.8,-3.2 26,-13 v 12.8 c 9,-2.6 14,-3.6 26,-5 z m -38.8,-65.6 v 47.6 c 0,1.2 -2,4.6 -4.2,7.2 -4,4.4 -8,6.6 -12.6,6.6 -10.4,0 -15.2,-11.6 -15.2,-36.6 0,-25.2 5.2,-36.8 16.6,-36.8 6.6,0 12.8,4.8 15.4,12 z"
             style="font-weight:bold;font-family:'Times Newer Roman';-inkscape-font-specification:'Times Newer Roman,  Bold';text-align:center;text-anchor:middle"
             id="path1023" />
          <path
             d="m 1408.8816,2108.7747 v 4.8 h 54.4 v -4.8 c -13.6,-0.2 -15.8,-2.4 -16,-15.4 v -61.6 h 17 v -8.6 h -17 v -23.8 c 0,-10.8 2.8,-15.2 9.8,-15.2 3.4,0 5.6,1.4 5.6,3.6 0,1 -0.4,2.2 -1.6,4.2 -1.8,3 -2.6,5 -2.6,7.2 0,6.2 5,10.8 11.6,10.8 7.4,0 12.2,-5 12.2,-12.2 0,-11.6 -11.4,-19.6 -28,-19.6 -13,0 -23.2,4.8 -28.6,13.2 -4.2,6.8 -5.6,14.8 -5.6,31.8 h -11.2 v 8.6 h 11.2 v 65.4 c -0.2,8.6 -2.4,10.8 -11.2,11.6 z"
             style="font-weight:bold;font-family:'Times Newer Roman';-inkscape-font-specification:'Times Newer Roman,  Bold';text-align:center;text-anchor:middle"
             id="path1025" />
          <path
             d="m 1516.2811,2020.9747 c -25,0 -44.2,20.6 -44.2,47.4 0,28 18.6,48 44.4,48 25.4,0 44,-20.2 44,-47.6 0,-27.6 -18.8,-47.8 -44.2,-47.8 z m 0.2,6 c 11.4,0 15.2,10.8 15.2,43 0,30.2 -3.8,40.4 -15.2,40.4 -11.6,0 -15.6,-10 -15.6,-38.8 0,-34.4 3.6,-44.6 15.6,-44.6 z"
             style="font-weight:bold;font-family:'Times Newer Roman';-inkscape-font-specification:'Times Newer Roman,  Bold';text-align:center;text-anchor:middle"
             id="path1027" />
          <path
             d="m 1616.6807,2113.5747 v -4.8 c -6.2,0.2 -9.6,-3.8 -9.6,-11.6 v -116 h -37.2 v 4.6 c 6.6,0.4 9.8,4 10,11.4 v 100 c -0.2,7.4 -3.8,11.6 -10,11.6 v 4.8 z"
             style="font-weight:bold;font-family:'Times Newer Roman';-inkscape-font-specification:'Times Newer Roman,  Bold';text-align:center;text-anchor:middle"
             id="path1029" />
          <path
             d="m 1672.2807,2113.5747 v -4.8 c -6.2,0.2 -9.6,-3.8 -9.6,-11.6 v -116 h -37.2 v 4.6 c 6.6,0.4 9.8,4 10,11.4 v 100 c -0.2,7.4 -3.8,11.6 -10,11.6 v 4.8 z"
             style="font-weight:bold;font-family:'Times Newer Roman';-inkscape-font-specification:'Times Newer Roman,  Bold';text-align:center;text-anchor:middle"
             id="path1031" />
          <path
             d="m 1727.4806,2020.9747 c -25,0 -44.2,20.6 -44.2,47.4 0,28 18.6,48 44.4,48 25.4,0 44,-20.2 44,-47.6 0,-27.6 -18.8,-47.8 -44.2,-47.8 z m 0.2,6 c 11.4,0 15.2,10.8 15.2,43 0,30.2 -3.8,40.4 -15.2,40.4 -11.6,0 -15.6,-10 -15.6,-38.8 0,-34.4 3.6,-44.6 15.6,-44.6 z"
             style="font-weight:bold;font-family:'Times Newer Roman';-inkscape-font-specification:'Times Newer Roman,  Bold';text-align:center;text-anchor:middle"
             id="path1033" />
          <path
             d="m 1909.6802,2027.7747 v -4.6 h -26.4 v 4.6 c 7.4,1 9.4,2.4 9.4,6.8 0,2.6 -2.6,10.2 -8.6,25.4 -2.8,7 -4.4,11.4 -7,18.4 -1.8,-8 -2.4,-9.6 -6.6,-25 -3.8,-13.2 -5.2,-19 -5.2,-20.8 0,-3 2,-4 9.4,-4.8 v -4.6 h -46 v 4.6 c 7.8,1 8,1 11.8,14 0,0.6 0.6,2 1,3.8 l -13.2,33.4 -4.8,-12.6 -7.2,-18 c -3.8,-10 -4.6,-12.8 -4.6,-15 0,-3.2 2,-4.8 7.4,-5.6 v -4.6 h -43.4 v 4.6 c 5.2,1.2 5.8,2.2 11.2,15.2 l 29,73.4 h 4.6 l 24.4,-60.8 20.2,60.8 h 4.4 l 30.4,-78.6 c 3,-7.4 4.6,-9 9.8,-10 z"
             style="font-weight:bold;font-family:'Times Newer Roman';-inkscape-font-specification:'Times Newer Roman,  Bold';text-align:center;text-anchor:middle"
             id="path1035" />
          <path
             d="m 2069.6795,2113.5747 v -4.8 c -6.8,-0.2 -9.6,-3.6 -9.6,-11.6 v -48.6 c 0,-16.8 -10.4,-27.6 -26.4,-27.6 -10.4,0 -17.6,3.8 -27.8,15.2 v -55 h -37.6 v 4.6 c 9,1.8 10.2,3 10.4,11.4 v 100 c -0.2,8.4 -1.8,10.2 -10.4,11.6 v 4.8 h 47.2 v -4.8 c -7,-0.8 -9.6,-3.8 -9.6,-11 v -52.4 c 0,-0.6 1.4,-2.6 3.4,-4.6 4.2,-4.2 9,-6.6 13.4,-6.6 6.8,0 10.2,5.4 10.2,16.2 v 47.4 c -0.2,7.4 -2.8,10.4 -9.2,11 v 4.8 z"
             style="font-weight:bold;font-family:'Times Newer Roman';-inkscape-font-specification:'Times Newer Roman,  Bold';text-align:center;text-anchor:middle"
             id="path1037" />
          <path
             d="m 2125.8795,2113.5747 v -4.8 c -6.8,-0.6 -9.2,-3.6 -9.2,-11 v -74.6 h -37.6 v 4.6 c 8.6,1.6 10.2,3.6 10.4,11.6 v 57.8 c -0.2,8.2 -1.6,9.8 -10.4,11.6 v 4.8 z m -23,-135.4 c -8.4,0 -15.2,6.8 -15.2,15.2 0,8.6 6.4,15.2 15,15.2 8.8,0 15.4,-6.4 15.4,-15 0,-8.6 -6.8,-15.4 -15.2,-15.4 z"
             style="font-weight:bold;font-family:'Times Newer Roman';-inkscape-font-specification:'Times Newer Roman,  Bold';text-align:center;text-anchor:middle"
             id="path1039" />
          <path
             d="m 2193.2795,2049.7747 h 5 v -28.4 h -4.4 c -1,2.8 -2.2,3.8 -4.8,3.8 -1.2,0 -3,-0.4 -6.2,-1.4 -6.2,-2 -10.6,-2.8 -15.4,-2.8 -17.6,0 -30.6,12 -30.6,28.6 0,13 8.2,22 27.8,30.4 13.6,5.8 19,10.8 19,17 0,7.8 -6,12.8 -14.8,12.8 -13.6,0 -22.8,-8.8 -27,-26 h -5.4 v 32.4 h 5 c 2,-4.4 3.2,-5.6 5,-5.6 1.2,0 2.6,0.4 4.4,1.2 6,2.4 15.8,4.6 21.4,4.6 17.8,0 30.2,-12.2 30.2,-29.8 0,-14 -7.6,-22.4 -27,-30.6 -13.6,-5.6 -19,-10.6 -19,-17.2 0,-6.6 5.4,-11.4 13,-11.4 5.2,0 10.4,2.2 14.6,6.2 4.2,4 6.4,7.6 9.2,16.2 z"
             style="font-weight:bold;font-family:'Times Newer Roman';-inkscape-font-specification:'Times Newer Roman,  Bold';text-align:center;text-anchor:middle"
             id="path1041" />
          <path
             d="m 2309.2791,2113.5747 v -4.8 c -6.8,-0.6 -9.2,-3.6 -9.2,-11 v -74.6 h -37.6 v 4.6 c 8.6,1.6 10.2,3.6 10.4,11.6 v 57.8 c -0.2,8.2 -1.6,9.8 -10.4,11.6 v 4.8 z m -23,-135.4 c -8.4,0 -15.2,6.8 -15.2,15.2 0,8.6 6.4,15.2 15,15.2 8.8,0 15.4,-6.4 15.4,-15 0,-8.6 -6.8,-15.4 -15.2,-15.4 z"
             style="font-weight:bold;font-family:'Times Newer Roman';-inkscape-font-specification:'Times Newer Roman,  Bold';text-align:center;text-anchor:middle"
             id="path1043" />
          <path
             d="m 2420.8791,2113.5747 v -4.8 c -7.2,-0.4 -9.8,-3.2 -9.6,-11 v -49.4 c 0,-16.8 -10.2,-27.4 -26.4,-27.4 -12,0 -20.6,5.2 -28,17 v -14.8 h -37.4 v 4.6 c 8.6,1.4 10.2,3.2 10.4,11.6 v 57.8 c -0.2,8.4 -1.8,10.2 -10.4,11.6 v 4.8 h 47.2 v -4.8 c -7,-0.8 -9.6,-3.8 -9.6,-11 v -52.4 c 0,-0.8 1.4,-2.8 3.4,-4.6 4.2,-4.4 9,-6.8 13.4,-6.8 6.8,0 10.2,5.4 10.2,16.2 v 47.6 c -0.2,7.4 -2.8,10.6 -9.2,11 v 4.8 z"
             style="font-weight:bold;font-family:'Times Newer Roman';-inkscape-font-specification:'Times Newer Roman,  Bold';text-align:center;text-anchor:middle"
             id="path1045" />
          <path
             d="m 2487.879,2049.7747 h 5 v -28.4 h -4.4 c -1,2.8 -2.2,3.8 -4.8,3.8 -1.2,0 -3,-0.4 -6.2,-1.4 -6.2,-2 -10.6,-2.8 -15.4,-2.8 -17.6,0 -30.6,12 -30.6,28.6 0,13 8.2,22 27.8,30.4 13.6,5.8 19,10.8 19,17 0,7.8 -6,12.8 -14.8,12.8 -13.6,0 -22.8,-8.8 -27,-26 h -5.4 v 32.4 h 5 c 2,-4.4 3.2,-5.6 5,-5.6 1.2,0 2.6,0.4 4.4,1.2 6,2.4 15.8,4.6 21.4,4.6 17.8,0 30.2,-12.2 30.2,-29.8 0,-14 -7.6,-22.4 -27,-30.6 -13.6,-5.6 -19,-10.6 -19,-17.2 0,-6.6 5.4,-11.4 13,-11.4 5.2,0 10.4,2.2 14.6,6.2 4.2,4 6.4,7.6 9.2,16.2 z"
             style="font-weight:bold;font-family:'Times Newer Roman';-inkscape-font-specification:'Times Newer Roman,  Bold';text-align:center;text-anchor:middle"
             id="path1047" />
          <path
             d="m 2562.0787,2031.7747 v -8.6 h -18.4 v -33.2 h -5 c -11.8,16.8 -19.6,25.6 -32.4,36.6 v 5.2 h 10.2 v 63.6 c 0,12.6 8.4,20.6 21.8,20.6 13.2,0 21.2,-6 29,-22 l -4.8,-2.2 c -4,7.6 -7,10.2 -11.2,10.2 -5.4,0 -7.6,-3.4 -7.6,-11.2 v -59 z"
             style="font-weight:bold;font-family:'Times Newer Roman';-inkscape-font-specification:'Times Newer Roman,  Bold';text-align:center;text-anchor:middle"
             id="path1049" />
          <path
             d="m 2626.2784,2113.5747 v -4.8 c -11.8,-0.6 -14.2,-3 -14.2,-15.4 v -37 c 0,-10.2 5.4,-18.6 11.8,-18.6 1.8,0 3.4,1.4 5.6,4.4 3.8,5.2 6.8,7 11.8,7 7.4,0 12.4,-5.4 12.4,-13 0,-8.8 -6.6,-15.2 -15.8,-15.2 -10.2,0 -17.2,4.8 -26.6,18.2 v -16 h -37 v 4.6 c 8,1 10.4,3.6 10.6,11.6 v 57.8 c -0.2,8 -2.2,10.4 -10.6,11.6 v 4.8 z"
             style="font-weight:bold;font-family:'Times Newer Roman';-inkscape-font-specification:'Times Newer Roman,  Bold';text-align:center;text-anchor:middle"
             id="path1051" />
          <path
             d="m 2764.2779,2109.5747 v -4.4 c -8.4,-0.4 -11,-3 -11,-11.4 v -70.6 h -39.4 v 4.6 c 9.6,0.8 12,3 12.2,11.6 v 55.6 c -6.4,6.4 -10.4,8.6 -16.2,8.6 -7.8,0 -10.8,-3.8 -10.8,-14 v -66.4 h -36.8 v 4.6 c 8,1.6 9.4,3.4 9.6,11.6 v 49.4 c 0,17.4 9.8,27.6 26,27.6 10.2,0 16.8,-3 28.4,-13 v 12.8 c 8.4,-3 13.2,-3.8 25.8,-5.2 z"
             style="font-weight:bold;font-family:'Times Newer Roman';-inkscape-font-specification:'Times Newer Roman,  Bold';text-align:center;text-anchor:middle"
             id="path1053" />
          <path
             d="m 2854.4778,2095.7747 -3.6,-3.6 c -7.2,8.2 -12.4,11 -20.4,11 -17,0 -27.8,-17 -27.8,-43.8 0,-20 6.2,-32.4 16.4,-32.4 3.2,0 6,1.4 7.2,3.8 1,1.8 1.2,1.8 1.2,10 0,9.6 3.4,14 11,14 8.2,0 13.2,-4.6 13.2,-12.4 0,-12 -13.2,-21.4 -30.2,-21.4 -26.8,0 -46.4,20.6 -46.4,49 0,27.2 17.4,46.4 42,46.4 15,0 26,-6 37.4,-20.6 z"
             style="font-weight:bold;font-family:'Times Newer Roman';-inkscape-font-specification:'Times Newer Roman,  Bold';text-align:center;text-anchor:middle"
             id="path1055" />
          <path
             d="m 2917.0771,2031.7747 v -8.6 h -18.4 v -33.2 h -5 c -11.8,16.8 -19.6,25.6 -32.4,36.6 v 5.2 h 10.2 v 63.6 c 0,12.6 8.4,20.6 21.8,20.6 13.2,0 21.2,-6 29,-22 l -4.8,-2.2 c -4,7.6 -7,10.2 -11.2,10.2 -5.4,0 -7.6,-3.4 -7.6,-11.2 v -59 z"
             style="font-weight:bold;font-family:'Times Newer Roman';-inkscape-font-specification:'Times Newer Roman,  Bold';text-align:center;text-anchor:middle"
             id="path1057" />
          <path
             d="m 2974.4765,2113.5747 v -4.8 c -6.8,-0.6 -9.2,-3.6 -9.2,-11 v -74.6 h -37.6 v 4.6 c 8.6,1.6 10.2,3.6 10.4,11.6 v 57.8 c -0.2,8.2 -1.6,9.8 -10.4,11.6 v 4.8 z m -23,-135.4 c -8.4,0 -15.2,6.8 -15.2,15.2 0,8.6 6.4,15.2 15,15.2 8.8,0 15.4,-6.4 15.4,-15 0,-8.6 -6.8,-15.4 -15.2,-15.4 z"
             style="font-weight:bold;font-family:'Times Newer Roman';-inkscape-font-specification:'Times Newer Roman,  Bold';text-align:center;text-anchor:middle"
             id="path1059" />
          <path
             d="m 3029.6764,2020.9747 c -25,0 -44.2,20.6 -44.2,47.4 0,28 18.6,48 44.4,48 25.4,0 44,-20.2 44,-47.6 0,-27.6 -18.8,-47.8 -44.2,-47.8 z m 0.2,6 c 11.4,0 15.2,10.8 15.2,43 0,30.2 -3.8,40.4 -15.2,40.4 -11.6,0 -15.6,-10 -15.6,-38.8 0,-34.4 3.6,-44.6 15.6,-44.6 z"
             style="font-weight:bold;font-family:'Times Newer Roman';-inkscape-font-specification:'Times Newer Roman,  Bold';text-align:center;text-anchor:middle"
             id="path1061" />
          <path
             d="m 3186.076,2113.5747 v -4.8 c -7.2,-0.4 -9.8,-3.2 -9.6,-11 v -49.4 c 0,-16.8 -10.2,-27.4 -26.4,-27.4 -12,0 -20.6,5.2 -28,17 v -14.8 h -37.4 v 4.6 c 8.6,1.4 10.2,3.2 10.4,11.6 v 57.8 c -0.2,8.4 -1.8,10.2 -10.4,11.6 v 4.8 h 47.2 v -4.8 c -7,-0.8 -9.6,-3.8 -9.6,-11 v -52.4 c 0,-0.8 1.4,-2.8 3.4,-4.6 4.2,-4.4 9,-6.8 13.4,-6.8 6.8,0 10.2,5.4 10.2,16.2 v 47.6 c -0.2,7.4 -2.8,10.6 -9.2,11 v 4.8 z"
             style="font-weight:bold;font-family:'Times Newer Roman';-inkscape-font-specification:'Times Newer Roman,  Bold';text-align:center;text-anchor:middle"
             id="path1063" />
          <path
             d="m 3253.0759,2049.7747 h 5 v -28.4 h -4.4 c -1,2.8 -2.2,3.8 -4.8,3.8 -1.2,0 -3,-0.4 -6.2,-1.4 -6.2,-2 -10.6,-2.8 -15.4,-2.8 -17.6,0 -30.6,12 -30.6,28.6 0,13 8.2,22 27.8,30.4 13.6,5.8 19,10.8 19,17 0,7.8 -6,12.8 -14.8,12.8 -13.6,0 -22.8,-8.8 -27,-26 h -5.4 v 32.4 h 5 c 2,-4.4 3.2,-5.6 5,-5.6 1.2,0 2.6,0.4 4.4,1.2 6,2.4 15.8,4.6 21.4,4.6 17.8,0 30.2,-12.2 30.2,-29.8 0,-14 -7.6,-22.4 -27,-30.6 -13.6,-5.6 -19,-10.6 -19,-17.2 0,-6.6 5.4,-11.4 13,-11.4 5.2,0 10.4,2.2 14.6,6.2 4.2,4 6.4,7.6 9.2,16.2 z"
             style="font-weight:bold;font-family:'Times Newer Roman';-inkscape-font-specification:'Times Newer Roman,  Bold';text-align:center;text-anchor:middle"
             id="path1065" />
          <path
             d="m 3296.4758,2082.9747 c -8.8,0 -16.4,7.6 -16.4,16.6 0,9.4 7,16.6 16.4,16.6 9.4,0 16.8,-7.2 16.8,-16.4 0,-9.2 -7.6,-16.8 -16.8,-16.8 z"
             style="font-weight:bold;font-family:'Times Newer Roman';-inkscape-font-specification:'Times Newer Roman,  Bold';text-align:center;text-anchor:middle"
             id="path1067" />
        </g>
      </g>
    </g>
  </g>
</svg>
